<?xml version="1.0" encoding="utf-8"?>
<svg viewBox="0 0 16 16" xmlns="http://www.w3.org/2000/svg">
  <path fill-rule="evenodd" d="M 4.687 13.385 L 2 13.385 L 2 11.769 L 3.853 11.769 C 3.762 11.422 3.697 11.066 3.697 10.692 L 3.697 10.154 L 2 10.154 L 2 8.538 L 3.697 8.538 L 3.697 7.462 C 3.697 7.277 3.73 7.102 3.753 6.923 L 2 6.923 L 2 5.308 L 4.307 5.308 C 4.724 4.604 5.333 4.033 6.067 3.6550000000000002 L 4.534 2.143 L 5.692 1 L 7.891 3.171 C 7.949 3.169 7.942 3.16 8 3.16 C 8.021 3.16 8.099 3.169 8.12 3.17 L 10.308 1 L 11.466 2.143 L 9.977 3.613 C 10.746 3.988 11.383 4.579 11.815 5.308 L 14 5.308 L 14 6.923 L 12.369 6.923 C 12.392 7.102 12.425 7.277 12.425 7.462 L 12.425 8.484 L 9.8 8.484 L 9.8 7 L 6.2 7 L 6.2 8.5 L 7.9190000000000005 8.5 L 7.9190000000000005 10 L 6.2 10 L 6.2 11.5 L 7.9190000000000005 11.5 L 7.9190000000000005 14.998 C 6.612 14.955 5.46 14.326 4.687 13.385 Z" style="" fill="#59A869"/>
  <g style="" transform="matrix(1.655053, 0, 0, 1.727273, -9.020738, -10.835655)">
    <rect x="11.871" y="11.753" width="1.007" height="3.146" style="stroke-width: 0px; stroke: rgb(255, 247, 0); fill: rgb(255, 206, 58);"/>
    <rect x="2.89" y="2.467" width="0.943" height="3.114" style="stroke-width: 0px; stroke: rgb(255, 247, 0); fill: rgb(255, 206, 58);" transform="matrix(-0.002877, -0.999996, 0.999996, -0.002877, 8.35956, 16.730024)"/>
  </g>
</svg>